# xmcd
#
# Track frame offsets:
# 150
# 14838
# 29353
# 44687
# 64433
# 78370
# 94766
# 108347
# 125480
# 145971
# 159124
#
# Disc length: 2381 seconds
#
# Revision: 0
# Processed by: cddbd v1.5.2PL0 Copyright (c) Steve Scherf et al.
# Submitted via: Axialis_AX_CDPlayer 2.6
#
DISCID=96094b0b
DTITLE=Randy Owen - One On One
DYEAR=1900
DGENRE=
TTITLE0=I Confess
TTITLE1=Holding Everything
TTITLE2=Like I Never Broke Her Heart
TTITLE3=Brand New Hair
TTITLE4=One On One
TTITLE5=Let's Pretend We're Strangers For The Night
TTITLE6=Slow And Steady
TTITLE7=Urban's On The Country Radio
TTITLE8=No One Can Love You Anymore
TTITLE9=Barbados
TTITLE10=Pray Me Back Home Again
EXTD=www.randyowen.com
EXTT0=
EXTT1=
EXTT2=
EXTT3=
EXTT4=
EXTT5=
EXTT6=
EXTT7=
EXTT8=
EXTT9=
EXTT10=
PLAYORDER=
